<svg id="LOGOS" xmlns="http://www.w3.org/2000/svg" viewBox="0 0 374 132"><defs><style>.cls-1{fill:#fff;}.cls-2{fill:#7b42bc;fill-rule:evenodd;}</style></defs><path class="cls-1" d="M128.88,58.4H117.63V51.68h30.12V58.4H136.5V92h-7.62Z"/><path class="cls-1" d="M155.71,86.53a30.77,30.77,0,0,0,9-1.39l1.15,5.56A31.65,31.65,0,0,1,155,92.58c-9.25,0-12.46-4.3-12.46-11.38V73.4c0-6.23,2.78-11.49,12.22-11.49s11.56,5.5,11.56,11.85v6.3H150v1.51C150,85.14,151.23,86.53,155.71,86.53ZM150,74.13h9.38V72.67c0-2.78-.85-4.71-4.48-4.71s-4.9,1.93-4.9,4.71Z"/><path class="cls-1" d="M186.08,68.68a56.66,56.66,0,0,0-7.81,4.3V92h-7.38V62.51h6.23l.49,3.27a32.66,32.66,0,0,1,7.74-3.87Z"/><path class="cls-1" d="M204.1,68.68a57.14,57.14,0,0,0-7.8,4.3V92h-7.38V62.51h6.23l.48,3.27a32.75,32.75,0,0,1,7.75-3.87Z"/><path class="cls-1" d="M228.78,92h-6.05l-.54-2a16.15,16.15,0,0,1-8.77,2.6c-5.39,0-7.69-3.69-7.69-8.77,0-6,2.61-8.29,8.59-8.29h7.08V72.43c0-3.26-.9-4.41-5.62-4.41a41.47,41.47,0,0,0-8.17.9l-.91-5.62a38.32,38.32,0,0,1,10.1-1.39c9.26,0,12,3.26,12,10.64ZM221.4,80.84H216c-2.42,0-3.09.67-3.09,2.91,0,2,.67,3,3,3a11.68,11.68,0,0,0,5.56-1.51Z"/><path class="cls-1" d="M251.47,55.8a21.16,21.16,0,0,0-4.24-.49c-2.9,0-3.32,1.27-3.32,3.51v3.69h7.5L251,68.38h-7.07V92h-7.38V68.38h-4.72V62.51h4.72V58.4c0-6.11,2.84-9.14,9.37-9.14a23.5,23.5,0,0,1,6.35.85Z"/><path class="cls-1" d="M265.86,92.58C255.76,92.58,253,87,253,81V73.52c0-6,2.72-11.61,12.82-11.61s12.83,5.56,12.83,11.61V81C278.69,87,276,92.58,265.86,92.58Zm0-24.38c-3.93,0-5.44,1.75-5.44,5.08V81.2c0,3.33,1.51,5.09,5.44,5.09s5.45-1.76,5.45-5.09V73.28C271.31,70,269.8,68.2,265.86,68.2Z"/><path class="cls-1" d="M297.68,68.68a57.14,57.14,0,0,0-7.8,4.3V92H282.5V62.51h6.23l.48,3.27A32.94,32.94,0,0,1,297,61.91Z"/><path class="cls-1" d="M318,92V71.4c0-1.57-.67-2.36-2.36-2.36s-5,1.09-7.68,2.49V92h-7.39V62.51h5.63l.73,2.48a29.59,29.59,0,0,1,11.79-3.08c2.85,0,4.6,1.15,5.57,3.14a29,29,0,0,1,11.86-3.14c4.9,0,6.65,3.44,6.65,8.71V92h-7.38V71.4c0-1.57-.67-2.36-2.36-2.36a19.42,19.42,0,0,0-7.68,2.49V92Z"/><polygon class="cls-2" points="51.62 44.49 70.72 55.52 70.72 77.58 51.62 66.55 51.62 44.49"/><polygon class="cls-2" points="72.81 55.52 72.81 77.58 91.92 66.55 91.92 44.49 72.81 55.52"/><polygon class="cls-2" points="30.42 32.18 30.42 54.24 49.52 65.27 49.52 43.21 30.42 32.18"/><polygon class="cls-2" points="51.62 91.03 70.72 102.06 70.72 80.14 70.72 80 51.62 68.97 51.62 91.03"/><path class="cls-1" d="M125.44,41.72V36.06h-5.17v5.66h-2.64V28.13h2.64v5.7h5.17v-5.7h2.64V41.72Zm12.33,0h-2.1l-.19-.67a5.69,5.69,0,0,1-3,.87c-1.86,0-2.66-1.23-2.66-2.92,0-2,.9-2.76,3-2.76h2.45v-1c0-1.09-.31-1.47-2-1.47a14.94,14.94,0,0,0-2.83.3l-.31-1.87a13.9,13.9,0,0,1,3.5-.46c3.2,0,4.15,1.08,4.15,3.54ZM135.21,38h-1.89c-.83,0-1.06.23-1.06,1s.23,1,1,1a4,4,0,0,0,1.93-.51Zm7.91,3.91a12.59,12.59,0,0,1-3.52-.56l.36-1.88a11.5,11.5,0,0,0,3,.43c1.13,0,1.3-.25,1.3-1s-.13-.91-1.78-1.29c-2.5-.58-2.79-1.19-2.79-3.08s.9-2.83,3.81-2.83a14,14,0,0,1,3.06.34L146.35,34a18.84,18.84,0,0,0-2.81-.28c-1.11,0-1.3.24-1.3.84,0,.79.07.85,1.45,1.19,2.85.73,3.12,1.09,3.12,3.1S146.2,41.92,143.12,41.92Zm11.71-.2V34.88c0-.53-.23-.79-.82-.79a7.12,7.12,0,0,0-2.66.83v6.8h-2.56V27.94l2.56.38v4.34a9.34,9.34,0,0,1,3.73-.94c1.7,0,2.3,1.14,2.3,2.89v7.11Zm4.7-11.19v-2.4h2.56v2.4Zm0,11.19v-9.8h2.56v9.8Zm4.6-9.72c0-2.46,1.49-3.89,5-3.89a16.47,16.47,0,0,1,3.79.45l-.29,2.19a21.49,21.49,0,0,0-3.42-.34c-1.82,0-2.41.6-2.41,2v5.15c0,1.43.59,2,2.41,2a21.49,21.49,0,0,0,3.42-.34l.29,2.2a16.47,16.47,0,0,1-3.79.44c-3.48,0-5-1.43-5-3.89Zm14.41,9.92c-3.5,0-4.44-1.85-4.44-3.87V35.58c0-2,.94-3.86,4.44-3.86S183,33.57,183,35.58v2.47C183,40.07,182,41.92,178.54,41.92Zm0-8.11c-1.36,0-1.89.58-1.89,1.69v2.64c0,1.1.53,1.69,1.89,1.69s1.89-.59,1.89-1.69V35.5C180.43,34.39,179.9,33.81,178.54,33.81Zm11.64.16a20.53,20.53,0,0,0-2.7,1.43v6.32h-2.56v-9.8h2.16l.17,1.08a11.54,11.54,0,0,1,2.68-1.28Zm10.22,4.49c0,2.17-1,3.46-3.37,3.46a14.85,14.85,0,0,1-2.73-.28v4l-2.55.38V31.92h2l.25.82a5.54,5.54,0,0,1,3.23-1c2.05,0,3.14,1.16,3.14,3.4Zm-6.1,1.1a12,12,0,0,0,2.27.27c.92,0,1.28-.43,1.28-1.31V35.06c0-.81-.32-1.25-1.26-1.25a3.73,3.73,0,0,0-2.29.88Z"/></svg>